<svg width="29" height="29" viewBox="0 0 29 29" fill="none" xmlns="http://www.w3.org/2000/svg">
<g clip-path="url(#clip0_18_58)">
<path d="M14.5 29C15.4614 29 16.3834 28.6181 17.0633 27.9383C17.7431 27.2584 18.125 26.3364 18.125 25.375H10.875C10.875 26.3364 11.2569 27.2584 11.9367 27.9383C12.6166 28.6181 13.5386 29 14.5 29ZM14.5 3.47637L13.0554 3.76819C11.4169 4.10205 9.94397 4.99181 8.88606 6.28688C7.82814 7.58194 7.25018 9.20276 7.25 10.875C7.25 12.0132 7.00712 14.8571 6.41806 17.6574C6.12806 19.0476 5.73656 20.4957 5.21638 21.75H23.7836C23.2634 20.4957 22.8737 19.0494 22.5819 17.6574C21.9929 14.8571 21.75 12.0132 21.75 10.875C21.7494 9.20307 21.1713 7.58268 20.1134 6.28799C19.0555 4.99329 17.5828 4.1038 15.9446 3.77L14.5 3.47456V3.47637ZM25.7738 21.75C26.1779 22.5602 26.6456 23.2018 27.1875 23.5625H1.8125C2.35444 23.2018 2.82206 22.5602 3.22625 21.75C4.8575 18.4875 5.4375 12.47 5.4375 10.875C5.4375 6.48875 8.555 2.8275 12.6966 1.99194C12.6713 1.73992 12.6991 1.48539 12.7782 1.24478C12.8573 1.00416 12.986 0.782799 13.1559 0.594967C13.3258 0.407134 13.5332 0.257002 13.7647 0.154251C13.9962 0.0515003 14.2467 -0.00158691 14.5 -0.00158691C14.7533 -0.00158691 15.0038 0.0515003 15.2353 0.154251C15.4668 0.257002 15.6742 0.407134 15.8441 0.594967C16.014 0.782799 16.1427 1.00416 16.2218 1.24478C16.3009 1.48539 16.3287 1.73992 16.3034 1.99194C18.3521 2.40863 20.1937 3.52053 21.5166 5.13934C22.8395 6.75816 23.5622 8.78441 23.5625 10.875C23.5625 12.47 24.1425 18.4875 25.7738 21.75Z" fill="black"/>
</g>
<defs>
<clipPath id="clip0_18_58">
<rect width="29" height="29" fill="white"/>
</clipPath>
</defs>
</svg>
