<svg width="29" height="29" viewBox="0 0 29 29" fill="none" xmlns="http://www.w3.org/2000/svg">
<path d="M8.48975 20.8854V16.7167H12.5878V15.6111H8.48975V12.3268H12.9557V11.2212H7.25V20.8854H8.48975ZM14.4637 20.8854H15.689V16.2762C15.689 15.2721 16.1004 14.4511 17.4163 14.4511C17.6429 14.4511 17.8839 14.4583 18.0126 14.4782V13.3672C17.8602 13.3443 17.7064 13.3322 17.5522 13.3309C16.4974 13.3309 15.9373 13.9109 15.718 14.3586H15.6818V13.4451H14.4637V20.8854ZM19.5478 11.6544C19.5478 12.0857 19.8958 12.4247 20.3272 12.4247C20.4321 12.4298 20.5369 12.4135 20.6354 12.3768C20.7338 12.3402 20.8238 12.2839 20.8998 12.2115C20.9758 12.139 21.0364 12.0519 21.0777 11.9553C21.1191 11.8588 21.1404 11.7549 21.1404 11.6498C21.1404 11.5448 21.1191 11.4409 21.0777 11.3443C21.0364 11.2478 20.9758 11.1606 20.8998 11.0882C20.8238 11.0157 20.7338 10.9595 20.6354 10.9228C20.5369 10.8862 20.4321 10.8699 20.3272 10.875C20.2246 10.874 20.1228 10.8935 20.0278 10.9323C19.9328 10.9712 19.8465 11.0285 19.7739 11.1011C19.7014 11.1737 19.644 11.26 19.6052 11.355C19.5663 11.45 19.5468 11.5517 19.5478 11.6544ZM19.7182 20.8854H20.9362V13.4451H19.7182V20.8854Z" fill="black"/>
<path d="M6.34375 0C6.5841 0 6.81461 0.0954797 6.98457 0.265435C7.15452 0.435389 7.25 0.665898 7.25 0.90625V1.8125H21.75V0.90625C21.75 0.665898 21.8455 0.435389 22.0154 0.265435C22.1854 0.0954797 22.4159 0 22.6562 0C22.8966 0 23.1271 0.0954797 23.2971 0.265435C23.467 0.435389 23.5625 0.665898 23.5625 0.90625V1.8125H25.375C26.3364 1.8125 27.2584 2.19442 27.9383 2.87424C28.6181 3.55406 29 4.47609 29 5.4375V25.375C29 26.3364 28.6181 27.2584 27.9383 27.9383C27.2584 28.6181 26.3364 29 25.375 29H3.625C2.66359 29 1.74156 28.6181 1.06174 27.9383C0.381919 27.2584 0 26.3364 0 25.375V5.4375C0 4.47609 0.381919 3.55406 1.06174 2.87424C1.74156 2.19442 2.66359 1.8125 3.625 1.8125H5.4375V0.90625C5.4375 0.665898 5.53298 0.435389 5.70293 0.265435C5.87289 0.0954797 6.1034 0 6.34375 0V0ZM1.8125 7.25V25.375C1.8125 25.8557 2.00346 26.3167 2.34337 26.6566C2.68328 26.9965 3.14429 27.1875 3.625 27.1875H25.375C25.8557 27.1875 26.3167 26.9965 26.6566 26.6566C26.9965 26.3167 27.1875 25.8557 27.1875 25.375V7.25H1.8125Z" fill="black"/>
</svg>
