<svg width="29" height="29" viewBox="0 0 29 29" fill="none" xmlns="http://www.w3.org/2000/svg">
<path d="M15.1416 2.07713C15.0574 1.99273 14.9574 1.92577 14.8473 1.88009C14.7372 1.8344 14.6192 1.81088 14.5 1.81088C14.3808 1.81088 14.2628 1.8344 14.1527 1.88009C14.0426 1.92577 13.9426 1.99273 13.8584 2.07713L2.98338 12.9521C2.89927 13.0364 2.83261 13.1365 2.78721 13.2466C2.7418 13.3567 2.71854 13.4747 2.71875 13.5938V26.2813C2.71875 26.5216 2.81423 26.7521 2.98419 26.9221C3.15414 27.092 3.38465 27.1875 3.625 27.1875H11.7813C12.0216 27.1875 12.2521 27.092 12.4221 26.9221C12.592 26.7521 12.6875 26.5216 12.6875 26.2813V19.0313H16.3125V26.2813C16.3125 26.5216 16.408 26.7521 16.5779 26.9221C16.7479 27.092 16.9784 27.1875 17.2188 27.1875H25.375C25.6154 27.1875 25.8459 27.092 26.0158 26.9221C26.1858 26.7521 26.2813 26.5216 26.2813 26.2813V13.5938C26.2815 13.4747 26.2582 13.3567 26.2128 13.2466C26.1674 13.1365 26.1007 13.0364 26.0166 12.9521L23.5625 10.4998V4.53125C23.5625 4.2909 23.467 4.06039 23.2971 3.89044C23.1271 3.72048 22.8966 3.625 22.6563 3.625H20.8438C20.6034 3.625 20.3729 3.72048 20.2029 3.89044C20.033 4.06039 19.9375 4.2909 19.9375 4.53125V6.87481L15.1416 2.07713ZM4.53125 25.375V13.9689L14.5 4.00019L24.4688 13.9689V25.375H18.125V18.125C18.125 17.8846 18.0295 17.6541 17.8596 17.4842C17.6896 17.3142 17.4591 17.2188 17.2188 17.2188H11.7813C11.5409 17.2188 11.3104 17.3142 11.1404 17.4842C10.9705 17.6541 10.875 17.8846 10.875 18.125V25.375H4.53125Z" fill="black"/>
</svg>
