<svg width="29" height="29" viewBox="0 0 29 29" fill="none" xmlns="http://www.w3.org/2000/svg">
<path d="M14.5 14.5C15.9421 14.5 17.3252 13.9271 18.3449 12.9074C19.3646 11.8877 19.9375 10.5046 19.9375 9.0625C19.9375 7.62039 19.3646 6.23734 18.3449 5.21761C17.3252 4.19788 15.9421 3.625 14.5 3.625C13.0579 3.625 11.6748 4.19788 10.6551 5.21761C9.63538 6.23734 9.0625 7.62039 9.0625 9.0625C9.0625 10.5046 9.63538 11.8877 10.6551 12.9074C11.6748 13.9271 13.0579 14.5 14.5 14.5ZM18.125 9.0625C18.125 10.0239 17.7431 10.9459 17.0633 11.6258C16.3834 12.3056 15.4614 12.6875 14.5 12.6875C13.5386 12.6875 12.6166 12.3056 11.9367 11.6258C11.2569 10.9459 10.875 10.0239 10.875 9.0625C10.875 8.10109 11.2569 7.17906 11.9367 6.49924C12.6166 5.81942 13.5386 5.4375 14.5 5.4375C15.4614 5.4375 16.3834 5.81942 17.0633 6.49924C17.7431 7.17906 18.125 8.10109 18.125 9.0625ZM25.375 23.5625C25.375 25.375 23.5625 25.375 23.5625 25.375H5.4375C5.4375 25.375 3.625 25.375 3.625 23.5625C3.625 21.75 5.4375 16.3125 14.5 16.3125C23.5625 16.3125 25.375 21.75 25.375 23.5625ZM23.5625 23.5553C23.5607 23.1094 23.2834 21.7681 22.0545 20.5392C20.8728 19.3575 18.6488 18.125 14.5 18.125C10.3494 18.125 8.12725 19.3575 6.9455 20.5392C5.71662 21.7681 5.44113 23.1094 5.4375 23.5553H23.5625Z" fill="black"/>
</svg>
